<?xml version="1.0" encoding="UTF-8"?>
<svg id="Design" xmlns="http://www.w3.org/2000/svg" viewBox="0 0 600 164">
  <defs>
    <style>
      .cls-1 {
        fill: #ffffff;
      }

      .cls-2 {
        fill: #3b82f6;
      }
    </style>
  </defs>
  <g>
    <path class="cls-2" d="M127.21,95.54c-5.07,10.67-15.94,18.05-28.54,18.05s-23.47-7.38-28.54-18.05h-9.75c5.58,15.77,20.61,27.08,38.29,27.08s32.72-11.3,38.29-27.08h-9.75Z"/>
    <path class="cls-2" d="M80.61,95.54c4.12,5.48,10.67,9.03,18.05,9.03s13.93-3.55,18.05-9.03h-36.1Z"/>
    <path class="cls-2" d="M146.42,95.54c-5.9,20.83-25.04,36.1-47.76,36.1s-41.86-15.27-47.76-36.1h-9.32c6.11,25.87,29.34,45.13,57.08,45.13s50.96-19.26,57.08-45.13h-9.32Z"/>
  </g>
  <g>
    <path class="cls-2" d="M67.4,86.51c-.21-1.47-.33-2.98-.33-4.51,0-15.91,11.77-29.07,27.08-31.26v-9.1c-20.31,2.25-36.1,19.45-36.1,40.36,0,1.53.09,3.03.26,4.51h9.1Z"/>
    <path class="cls-2" d="M130.25,82c0,1.53-.12,3.04-.33,4.51h9.1c.16-1.48.26-2.99.26-4.51,0-20.9-15.8-38.11-36.1-40.36v9.1c15.31,2.19,27.08,15.35,27.08,31.26Z"/>
    <path class="cls-2" d="M98.66,59.44c-12.46,0-22.56,10.1-22.56,22.56,0,1.55.16,3.05.45,4.51h9.35c-.5-1.41-.77-2.93-.77-4.51,0-7.48,6.06-13.54,13.54-13.54s13.54,6.06,13.54,13.54c0,1.58-.27,3.1-.77,4.51h9.35c.3-1.46.45-2.97.45-4.51,0-12.46-10.1-22.56-22.56-22.56Z"/>
    <path class="cls-2" d="M85.14,34.24c4.3-1.22,8.84-1.88,13.53-1.88s9.23.67,13.53,1.88l3.24-8.46c-5.31-1.58-10.94-2.45-16.77-2.45s-11.45.86-16.77,2.45l3.24,8.46Z"/>
    <path class="cls-2" d="M120.49,37.41c7.99,3.92,14.77,9.93,19.64,17.31l7.98-4.28c-5.92-9.26-14.37-16.76-24.38-21.49l-3.24,8.46Z"/>
    <path class="cls-2" d="M57.2,54.73c4.87-7.38,11.65-13.39,19.64-17.31l-3.24-8.46c-10.01,4.74-18.46,12.23-24.38,21.49l7.98,4.28Z"/>
    <path class="cls-2" d="M148.09,86.51h9.05c.11-1.49.19-2.99.19-4.51,0-8.45-1.8-16.47-5.01-23.73l-7.97,4.27c2.55,5.97,3.96,12.55,3.96,19.45,0,1.52-.08,3.03-.21,4.51Z"/>
    <path class="cls-2" d="M49.24,86.51c-.13-1.49-.21-2.99-.21-4.51,0-6.9,1.41-13.48,3.96-19.45l-7.97-4.27c-3.21,7.26-5.01,15.28-5.01,23.72,0,1.52.08,3.02.19,4.51h9.05Z"/>
  </g>
  <g>
    <polygon class="cls-1" points="188.32 63.74 205.86 63.74 205.86 114.22 217.82 114.22 217.82 63.74 235.36 63.74 235.36 54.02 188.32 54.02 188.32 63.74"/>
    <polygon class="cls-1" points="242.33 114.22 282.14 114.22 282.14 104.5 254.37 104.5 254.37 88.34 279.56 88.34 279.56 78.96 254.37 78.96 254.37 63.74 282.14 63.74 282.14 54.02 242.33 54.02 242.33 114.22"/>
    <path class="cls-1" d="M325.4,82.96c-2.52-1.4-5.3-2.62-8.34-3.66-1.95-.63-3.76-1.25-5.42-1.85-1.66-.6-3.11-1.25-4.34-1.93-1.23-.69-2.19-1.51-2.88-2.45-.69-.95-1.03-2.14-1.03-3.57s.34-2.62,1.03-3.57c.69-.95,1.62-1.66,2.8-2.15,1.17-.49,2.48-.7,3.91-.65,1.66,0,3.1.34,4.3,1.03,1.2.69,2.15,1.59,2.84,2.71.69,1.12,1.06,2.34,1.12,3.66h12.9c-.12-3.61-1.08-6.74-2.88-9.37-1.81-2.64-4.26-4.66-7.35-6.06-3.1-1.4-6.68-2.11-10.75-2.11s-7.5.69-10.62,2.06c-3.13,1.38-5.56,3.35-7.31,5.93-1.75,2.58-2.62,5.71-2.62,9.37,0,4.3,1.25,7.74,3.74,10.32s6.12,4.64,10.88,6.19c2.12.69,4.11,1.36,5.98,2.02,1.86.66,3.51,1.39,4.94,2.19,1.43.8,2.57,1.78,3.4,2.92.83,1.15,1.25,2.52,1.25,4.13,0,1.49-.36,2.75-1.07,3.78-.72,1.03-1.72,1.84-3.01,2.41-1.29.57-2.82.86-4.6.86-2.01,0-3.76-.4-5.25-1.2-1.49-.8-2.65-1.89-3.48-3.27-.83-1.38-1.28-2.92-1.33-4.64h-12.73c.06,4.07,1.09,7.54,3.1,10.41,2.01,2.87,4.71,5.05,8.13,6.54,3.41,1.49,7.3,2.24,11.65,2.24,4.64,0,8.54-.83,11.7-2.49,3.15-1.66,5.56-3.86,7.22-6.58,1.66-2.72,2.49-5.69,2.49-8.9,0-3.67-.76-6.62-2.28-8.86-1.52-2.24-3.54-4.05-6.06-5.46Z"/>
    <polygon class="cls-1" points="354.38 54.02 342.34 54.02 342.34 114.22 380.7 114.22 380.7 104.85 354.38 104.85 354.38 54.02"/>
    <path class="cls-1" d="M407.44,54.02l-21.93,60.2h12.56l4.69-13.5h22.89l4.67,13.5h12.73l-21.93-60.2h-13.67ZM406.02,91.35l8.22-23.65,8.17,23.65h-16.39Z"/>
    <polygon class="cls-1" points="479.51 97.45 457.32 54.02 450.44 54.02 450.44 114.22 456.46 114.22 456.46 65.2 477.27 105.79 481.74 105.79 502.55 65.03 502.55 114.22 508.57 114.22 508.57 54.02 501.61 54.02 479.51 97.45"/>
    <path class="cls-1" d="M560,114.22l-13.33-26.09c1.42-.37,2.72-.86,3.87-1.48,2.98-1.58,5.19-3.7,6.62-6.36,1.43-2.67,2.15-5.6,2.15-8.81s-.69-6.29-2.06-8.9c-1.38-2.61-3.54-4.69-6.49-6.23-2.95-1.55-6.75-2.32-11.4-2.32h-18.58v60.2h6.02v-25.2h12.13c.43,0,.85-.01,1.27-.03l12.57,25.22h7.22ZM526.8,84.12v-25.03h12.04c5.04,0,8.69,1.1,10.92,3.31,2.24,2.21,3.35,5.23,3.35,9.07s-1.15,6.77-3.44,9.12c-2.29,2.35-5.88,3.53-10.75,3.53h-12.13Z"/>
  </g>
</svg>

